<?xml version="1.0" encoding="UTF-8" standalone="no"?><!DOCTYPE svg PUBLIC "-//W3C//DTD SVG 1.1//EN" "http://www.w3.org/Graphics/SVG/1.1/DTD/svg11.dtd"><svg width="100%" height="100%" viewBox="0 0 8000 4500" version="1.1" xmlns="http://www.w3.org/2000/svg" xmlns:xlink="http://www.w3.org/1999/xlink" xml:space="preserve" xmlns:serif="http://www.serif.com/" style="fill-rule:evenodd;clip-rule:evenodd;stroke-linejoin:round;stroke-miterlimit:2;"><path d="M3820.83,-141.233c0,0 140.464,1597.46 1230.83,1881.68c1090.37,284.224 1475.16,259.265 1870.1,699.306c394.936,440.041 351.674,1254.5 820.553,1495.23c468.88,240.724 620.186,335.85 620.186,335.85l-81.101,-4481.08l-4326.99,-156.424l-133.579,225.434" style="fill:#4b9e92;"/><path d="M4395.83,0c0,0 122.68,1446.76 1075,1704.17c952.32,257.41 1288.4,234.805 1633.33,633.333c344.935,398.528 307.149,1136.15 716.666,1354.17c409.517,218.014 541.667,304.166 541.667,304.166l-70.833,-4058.33l-3779.17,-141.667l-116.667,204.167" style="fill:#d2f2ec;"/></svg>