<?xml version="1.0" encoding="UTF-8" standalone="no"?><!DOCTYPE svg PUBLIC "-//W3C//DTD SVG 1.1//EN" "http://www.w3.org/Graphics/SVG/1.1/DTD/svg11.dtd"><svg width="100%" height="100%" viewBox="0 0 8000 4500" version="1.1" xmlns="http://www.w3.org/2000/svg" xmlns:xlink="http://www.w3.org/1999/xlink" xml:space="preserve" xmlns:serif="http://www.serif.com/" style="fill-rule:evenodd;clip-rule:evenodd;stroke-linejoin:round;stroke-miterlimit:2;"><path d="M0,1250c0,0 1436.37,944.923 2241.67,925c805.293,-19.923 1039.72,-604.129 1758.33,-595.833c718.616,8.295 1108.73,811.514 2020.83,675c912.104,-136.515 1979.17,-1004.17 1979.17,-1004.17l516.667,108.333l208.333,2850l-3925,-8.333l-5920.83,-25l1120.83,-2925Z" style="fill:#ffe76e;"/><path d="M0,1541.67c0,-0 1436.37,944.922 2241.67,925c805.293,-19.923 1039.72,-604.129 1758.33,-595.834c718.616,8.296 1108.73,811.515 2020.83,675c912.104,-136.514 1979.17,-1004.17 1979.17,-1004.17l516.667,108.333l208.333,2850l-3925,-8.333l-5920.83,-25l1120.83,-2925Z" style="fill:#ffbbb4;"/><path d="M0,1920.83c0,0 1436.37,944.923 2241.67,925c805.293,-19.922 1039.72,-604.129 1758.33,-595.833c718.616,8.296 1108.73,811.514 2020.83,675c912.104,-136.514 1979.17,-1004.17 1979.17,-1004.17l516.667,108.334l208.333,2850l-3925,-8.334l-5920.83,-25l1120.83,-2925Z" style="fill:#d2f2ec;"/></svg>