<?xml version="1.0" encoding="UTF-8" standalone="no"?><!DOCTYPE svg PUBLIC "-//W3C//DTD SVG 1.1//EN" "http://www.w3.org/Graphics/SVG/1.1/DTD/svg11.dtd"><svg width="100%" height="100%" viewBox="0 0 8000 4500" version="1.1" xmlns="http://www.w3.org/2000/svg" xmlns:xlink="http://www.w3.org/1999/xlink" xml:space="preserve" xmlns:serif="http://www.serif.com/" style="fill-rule:evenodd;clip-rule:evenodd;stroke-linejoin:round;stroke-miterlimit:2;"><path d="M339.716,2887.01c-155.231,-457.135 302.348,-1697.69 1151.86,-1819.62c849.51,-121.925 1449.25,796.243 1597.31,1114.96c148.054,318.719 237.712,1454.81 -665.919,1627.85c-903.631,173.039 -1928.01,-466.055 -2083.24,-923.189Z" style="fill:#ffe76e;"/><path d="M2492.42,1471.55c276.502,-421.768 1567.45,-908.132 2189.21,-353.365c621.756,554.768 243.516,1617.57 75.232,1941.46c-168.283,323.889 -1037.61,1150.29 -1734.25,589.152c-696.64,-561.142 -806.695,-1755.48 -530.192,-2177.24Z" style="fill:#ffbbb4;"/><path d="M6288.55,1069.18c513.736,106.343 1478.05,1169.11 1179.32,1982.29c-298.733,813.176 -1471.43,853.244 -1849.09,814.184c-377.662,-39.061 -1509.58,-564.209 -1233.33,-1452.24c276.25,-888.032 1389.36,-1450.57 1903.1,-1344.23Z" style="fill:#ffd192;"/></svg>